<?xml version='1.0' encoding='UTF-8'?>
<svg width="98mm" height="98mm" version="1.1" viewBox="0 0 98 98" xmlns="http://www.w3.org/2000/svg"><path d="M8,8H10V10H8zM10,8H12V10H10zM12,8H14V10H12zM14,8H16V10H14zM16,8H18V10H16zM18,8H20V10H18zM20,8H22V10H20zM30,8H32V10H30zM32,8H34V10H32zM34,8H36V10H34zM38,8H40V10H38zM46,8H48V10H46zM48,8H50V10H48zM52,8H54V10H52zM54,8H56V10H54zM58,8H60V10H58zM60,8H62V10H60zM64,8H66V10H64zM70,8H72V10H70zM72,8H74V10H72zM76,8H78V10H76zM78,8H80V10H78zM80,8H82V10H80zM82,8H84V10H82zM84,8H86V10H84zM86,8H88V10H86zM88,8H90V10H88zM8,10H10V12H8zM20,10H22V12H20zM26,10H28V12H26zM28,10H30V12H28zM42,10H44V12H42zM58,10H60V12H58zM68,10H70V12H68zM72,10H74V12H72zM76,10H78V12H76zM88,10H90V12H88zM8,12H10V14H8zM12,12H14V14H12zM14,12H16V14H14zM16,12H18V14H16zM20,12H22V14H20zM28,12H30V14H28zM30,12H32V14H30zM34,12H36V14H34zM36,12H38V14H36zM38,12H40V14H38zM42,12H44V14H42zM44,12H46V14H44zM46,12H48V14H46zM50,12H52V14H50zM52,12H54V14H52zM54,12H56V14H54zM56,12H58V14H56zM68,12H70V14H68zM72,12H74V14H72zM76,12H78V14H76zM80,12H82V14H80zM82,12H84V14H82zM84,12H86V14H84zM88,12H90V14H88zM8,14H10V16H8zM12,14H14V16H12zM14,14H16V16H14zM16,14H18V16H16zM20,14H22V16H20zM26,14H28V16H26zM30,14H32V16H30zM34,14H36V16H34zM40,14H42V16H40zM44,14H46V16H44zM46,14H48V16H46zM52,14H54V16H52zM54,14H56V16H54zM60,14H62V16H60zM62,14H64V16H62zM66,14H68V16H66zM68,14H70V16H68zM70,14H72V16H70zM76,14H78V16H76zM80,14H82V16H80zM82,14H84V16H82zM84,14H86V16H84zM88,14H90V16H88zM8,16H10V18H8zM12,16H14V18H12zM14,16H16V18H14zM16,16H18V18H16zM20,16H22V18H20zM24,16H26V18H24zM26,16H28V18H26zM32,16H34V18H32zM40,16H42V18H40zM48,16H50V18H48zM54,16H56V18H54zM60,16H62V18H60zM62,16H64V18H62zM66,16H68V18H66zM70,16H72V18H70zM76,16H78V18H76zM80,16H82V18H80zM82,16H84V18H82zM84,16H86V18H84zM88,16H90V18H88zM8,18H10V20H8zM20,18H22V20H20zM28,18H30V20H28zM32,18H34V20H32zM36,18H38V20H36zM40,18H42V20H40zM42,18H44V20H42zM46,18H48V20H46zM48,18H50V20H48zM50,18H52V20H50zM56,18H58V20H56zM64,18H66V20H64zM66,18H68V20H66zM70,18H72V20H70zM72,18H74V20H72zM76,18H78V20H76zM88,18H90V20H88zM8,20H10V22H8zM10,20H12V22H10zM12,20H14V22H12zM14,20H16V22H14zM16,20H18V22H16zM18,20H20V22H18zM20,20H22V22H20zM24,20H26V22H24zM28,20H30V22H28zM32,20H34V22H32zM36,20H38V22H36zM40,20H42V22H40zM44,20H46V22H44zM48,20H50V22H48zM52,20H54V22H52zM56,20H58V22H56zM60,20H62V22H60zM64,20H66V22H64zM68,20H70V22H68zM72,20H74V22H72zM76,20H78V22H76zM78,20H80V22H78zM80,20H82V22H80zM82,20H84V22H82zM84,20H86V22H84zM86,20H88V22H86zM88,20H90V22H88zM24,22H26V24H24zM26,22H28V24H26zM30,22H32V24H30zM34,22H36V24H34zM36,22H38V24H36zM42,22H44V24H42zM44,22H46V24H44zM46,22H48V24H46zM48,22H50V24H48zM62,22H64V24H62zM66,22H68V24H66zM70,22H72V24H70zM12,24H14V26H12zM14,24H16V26H14zM20,24H22V26H20zM22,24H24V26H22zM24,24H26V26H24zM28,24H30V26H28zM32,24H34V26H32zM34,24H36V26H34zM42,24H44V26H42zM46,24H48V26H46zM52,24H54V26H52zM58,24H60V26H58zM60,24H62V26H60zM64,24H66V26H64zM66,24H68V26H66zM68,24H70V26H68zM70,24H72V26H70zM74,24H76V26H74zM76,24H78V26H76zM80,24H82V26H80zM10,26H12V28H10zM12,26H14V28H12zM24,26H26V28H24zM26,26H28V28H26zM32,26H34V28H32zM34,26H36V28H34zM42,26H44V28H42zM46,26H48V28H46zM48,26H50V28H48zM50,26H52V28H50zM54,26H56V28H54zM58,26H60V28H58zM64,26H66V28H64zM66,26H68V28H66zM68,26H70V28H68zM70,26H72V28H70zM72,26H74V28H72zM74,26H76V28H74zM76,26H78V28H76zM78,26H80V28H78zM80,26H82V28H80zM84,26H86V28H84zM86,26H88V28H86zM88,26H90V28H88zM10,28H12V30H10zM20,28H22V30H20zM22,28H24V30H22zM28,28H30V30H28zM30,28H32V30H30zM32,28H34V30H32zM36,28H38V30H36zM40,28H42V30H40zM42,28H44V30H42zM54,28H56V30H54zM58,28H60V30H58zM66,28H68V30H66zM74,28H76V30H74zM78,28H80V30H78zM84,28H86V30H84zM86,28H88V30H86zM12,30H14V32H12zM22,30H24V32H22zM24,30H26V32H24zM26,30H28V32H26zM28,30H30V32H28zM46,30H48V32H46zM54,30H56V32H54zM58,30H60V32H58zM62,30H64V32H62zM64,30H66V32H64zM68,30H70V32H68zM72,30H74V32H72zM74,30H76V32H74zM76,30H78V32H76zM78,30H80V32H78zM80,30H82V32H80zM86,30H88V32H86zM88,30H90V32H88zM8,32H10V34H8zM14,32H16V34H14zM16,32H18V34H16zM20,32H22V34H20zM26,32H28V34H26zM28,32H30V34H28zM30,32H32V34H30zM38,32H40V34H38zM40,32H42V34H40zM42,32H44V34H42zM44,32H46V34H44zM50,32H52V34H50zM56,32H58V34H56zM58,32H60V34H58zM60,32H62V34H60zM66,32H68V34H66zM70,32H72V34H70zM72,32H74V34H72zM78,32H80V34H78zM82,32H84V34H82zM84,32H86V34H84zM12,34H14V36H12zM16,34H18V36H16zM22,34H24V36H22zM24,34H26V36H24zM26,34H28V36H26zM30,34H32V36H30zM34,34H36V36H34zM42,34H44V36H42zM44,34H46V36H44zM46,34H48V36H46zM50,34H52V36H50zM52,34H54V36H52zM54,34H56V36H54zM56,34H58V36H56zM60,34H62V36H60zM68,34H70V36H68zM70,34H72V36H70zM74,34H76V36H74zM76,34H78V36H76zM84,34H86V36H84zM88,34H90V36H88zM8,36H10V38H8zM10,36H12V38H10zM12,36H14V38H12zM20,36H22V38H20zM24,36H26V38H24zM30,36H32V38H30zM40,36H42V38H40zM42,36H44V38H42zM46,36H48V38H46zM52,36H54V38H52zM54,36H56V38H54zM60,36H62V38H60zM66,36H68V38H66zM70,36H72V38H70zM72,36H74V38H72zM76,36H78V38H76zM78,36H80V38H78zM82,36H84V38H82zM84,36H86V38H84zM86,36H88V38H86zM88,36H90V38H88zM10,38H12V40H10zM12,38H14V40H12zM14,38H16V40H14zM30,38H32V40H30zM36,38H38V40H36zM38,38H40V40H38zM44,38H46V40H44zM46,38H48V40H46zM56,38H58V40H56zM58,38H60V40H58zM60,38H62V40H60zM64,38H66V40H64zM68,38H70V40H68zM72,38H74V40H72zM76,38H78V40H76zM80,38H82V40H80zM82,38H84V40H82zM8,40H10V42H8zM12,40H14V42H12zM18,40H20V42H18zM20,40H22V42H20zM26,40H28V42H26zM28,40H30V42H28zM30,40H32V42H30zM34,40H36V42H34zM42,40H44V42H42zM48,40H50V42H48zM50,40H52V42H50zM52,40H54V42H52zM54,40H56V42H54zM60,40H62V42H60zM62,40H64V42H62zM64,40H66V42H64zM72,40H74V42H72zM80,40H82V42H80zM88,40H90V42H88zM14,42H16V44H14zM18,42H20V44H18zM24,42H26V44H24zM30,42H32V44H30zM38,42H40V44H38zM40,42H42V44H40zM42,42H44V44H42zM44,42H46V44H44zM46,42H48V44H46zM52,42H54V44H52zM56,42H58V44H56zM60,42H62V44H60zM62,42H64V44H62zM66,42H68V44H66zM72,42H74V44H72zM74,42H76V44H74zM78,42H80V44H78zM84,42H86V44H84zM10,44H12V46H10zM20,44H22V46H20zM30,44H32V46H30zM40,44H42V46H40zM44,44H46V46H44zM46,44H48V46H46zM52,44H54V46H52zM54,44H56V46H54zM58,44H60V46H58zM60,44H62V46H60zM62,44H64V46H62zM64,44H66V46H64zM72,44H74V46H72zM74,44H76V46H74zM80,44H82V46H80zM82,44H84V46H82zM84,44H86V46H84zM14,46H16V48H14zM16,46H18V48H16zM24,46H26V48H24zM26,46H28V48H26zM30,46H32V48H30zM32,46H34V48H32zM54,46H56V48H54zM66,46H68V48H66zM68,46H70V48H68zM72,46H74V48H72zM78,46H80V48H78zM84,46H86V48H84zM88,46H90V48H88zM8,48H10V50H8zM10,48H12V50H10zM12,48H14V50H12zM14,48H16V50H14zM18,48H20V50H18zM20,48H22V50H20zM22,48H24V50H22zM26,48H28V50H26zM38,48H40V50H38zM42,48H44V50H42zM50,48H52V50H50zM52,48H54V50H52zM56,48H58V50H56zM60,48H62V50H60zM64,48H66V50H64zM66,48H68V50H66zM68,48H70V50H68zM70,48H72V50H70zM74,48H76V50H74zM76,48H78V50H76zM80,48H82V50H80zM82,48H84V50H82zM84,48H86V50H84zM88,48H90V50H88zM14,50H16V52H14zM22,50H24V52H22zM24,50H26V52H24zM30,50H32V52H30zM32,50H34V52H32zM34,50H36V52H34zM38,50H40V52H38zM40,50H42V52H40zM42,50H44V52H42zM44,50H46V52H44zM46,50H48V52H46zM48,50H50V52H48zM50,50H52V52H50zM54,50H56V52H54zM64,50H66V52H64zM66,50H68V52H66zM70,50H72V52H70zM72,50H74V52H72zM76,50H78V52H76zM78,50H80V52H78zM80,50H82V52H80zM84,50H86V52H84zM86,50H88V52H86zM88,50H90V52H88zM12,52H14V54H12zM20,52H22V54H20zM22,52H24V54H22zM26,52H28V54H26zM30,52H32V54H30zM36,52H38V54H36zM48,52H50V54H48zM50,52H52V54H50zM64,52H66V54H64zM66,52H68V54H66zM68,52H70V54H68zM72,52H74V54H72zM74,52H76V54H74zM76,52H78V54H76zM78,52H80V54H78zM80,52H82V54H80zM82,52H84V54H82zM84,52H86V54H84zM86,52H88V54H86zM8,54H10V56H8zM10,54H12V56H10zM18,54H20V56H18zM22,54H24V56H22zM30,54H32V56H30zM32,54H34V56H32zM34,54H36V56H34zM36,54H38V56H36zM38,54H40V56H38zM42,54H44V56H42zM44,54H46V56H44zM46,54H48V56H46zM48,54H50V56H48zM54,54H56V56H54zM58,54H60V56H58zM72,54H74V56H72zM76,54H78V56H76zM82,54H84V56H82zM86,54H88V56H86zM88,54H90V56H88zM8,56H10V58H8zM12,56H14V58H12zM18,56H20V58H18zM20,56H22V58H20zM26,56H28V58H26zM30,56H32V58H30zM32,56H34V58H32zM34,56H36V58H34zM36,56H38V58H36zM42,56H44V58H42zM44,56H46V58H44zM46,56H48V58H46zM48,56H50V58H48zM50,56H52V58H50zM52,56H54V58H52zM56,56H58V58H56zM62,56H64V58H62zM64,56H66V58H64zM66,56H68V58H66zM70,56H72V58H70zM84,56H86V58H84zM86,56H88V58H86zM88,56H90V58H88zM10,58H12V60H10zM14,58H16V60H14zM18,58H20V60H18zM22,58H24V60H22zM24,58H26V60H24zM26,58H28V60H26zM28,58H30V60H28zM38,58H40V60H38zM40,58H42V60H40zM42,58H44V60H42zM44,58H46V60H44zM48,58H50V60H48zM52,58H54V60H52zM54,58H56V60H54zM56,58H58V60H56zM58,58H60V60H58zM62,58H64V60H62zM64,58H66V60H64zM66,58H68V60H66zM70,58H72V60H70zM72,58H74V60H72zM76,58H78V60H76zM82,58H84V60H82zM84,58H86V60H84zM88,58H90V60H88zM12,60H14V62H12zM20,60H22V62H20zM30,60H32V62H30zM32,60H34V62H32zM34,60H36V62H34zM36,60H38V62H36zM38,60H40V62H38zM40,60H42V62H40zM42,60H44V62H42zM44,60H46V62H44zM46,60H48V62H46zM48,60H50V62H48zM52,60H54V62H52zM54,60H56V62H54zM56,60H58V62H56zM58,60H60V62H58zM60,60H62V62H60zM64,60H66V62H64zM68,60H70V62H68zM70,60H72V62H70zM72,60H74V62H72zM74,60H76V62H74zM76,60H78V62H76zM78,60H80V62H78zM82,60H84V62H82zM86,60H88V62H86zM88,60H90V62H88zM12,62H14V64H12zM16,62H18V64H16zM22,62H24V64H22zM24,62H26V64H24zM28,62H30V64H28zM32,62H34V64H32zM34,62H36V64H34zM38,62H40V64H38zM42,62H44V64H42zM44,62H46V64H44zM50,62H52V64H50zM56,62H58V64H56zM60,62H62V64H60zM62,62H64V64H62zM64,62H66V64H64zM68,62H70V64H68zM70,62H72V64H70zM72,62H74V64H72zM74,62H76V64H74zM76,62H78V64H76zM80,62H82V64H80zM82,62H84V64H82zM86,62H88V64H86zM88,62H90V64H88zM8,64H10V66H8zM10,64H12V66H10zM14,64H16V66H14zM16,64H18V66H16zM18,64H20V66H18zM20,64H22V66H20zM22,64H24V66H22zM24,64H26V66H24zM26,64H28V66H26zM28,64H30V66H28zM30,64H32V66H30zM34,64H36V66H34zM40,64H42V66H40zM48,64H50V66H48zM50,64H52V66H50zM54,64H56V66H54zM58,64H60V66H58zM68,64H70V66H68zM70,64H72V66H70zM72,64H74V66H72zM74,64H76V66H74zM78,64H80V66H78zM80,64H82V66H80zM82,64H84V66H82zM10,66H12V68H10zM12,66H14V68H12zM14,66H16V68H14zM24,66H26V68H24zM26,66H28V68H26zM28,66H30V68H28zM30,66H32V68H30zM36,66H38V68H36zM38,66H40V68H38zM40,66H42V68H40zM42,66H44V68H42zM44,66H46V68H44zM48,66H50V68H48zM50,66H52V68H50zM52,66H54V68H52zM62,66H64V68H62zM64,66H66V68H64zM66,66H68V68H66zM72,66H74V68H72zM78,66H80V68H78zM84,66H86V68H84zM8,68H10V70H8zM16,68H18V70H16zM18,68H20V70H18zM20,68H22V70H20zM24,68H26V70H24zM40,68H42V70H40zM50,68H52V70H50zM52,68H54V70H52zM58,68H60V70H58zM60,68H62V70H60zM62,68H64V70H62zM72,68H74V70H72zM74,68H76V70H74zM76,68H78V70H76zM80,68H82V70H80zM82,68H84V70H82zM84,68H86V70H84zM14,70H16V72H14zM16,70H18V72H16zM34,70H36V72H34zM38,70H40V72H38zM42,70H44V72H42zM44,70H46V72H44zM46,70H48V72H46zM60,70H62V72H60zM62,70H64V72H62zM66,70H68V72H66zM68,70H70V72H68zM72,70H74V72H72zM76,70H78V72H76zM82,70H84V72H82zM84,70H86V72H84zM88,70H90V72H88zM10,72H12V74H10zM12,72H14V74H12zM16,72H18V74H16zM20,72H22V74H20zM22,72H24V74H22zM26,72H28V74H26zM28,72H30V74H28zM30,72H32V74H30zM32,72H34V74H32zM36,72H38V74H36zM38,72H40V74H38zM42,72H44V74H42zM48,72H50V74H48zM52,72H54V74H52zM56,72H58V74H56zM60,72H62V74H60zM64,72H66V74H64zM66,72H68V74H66zM68,72H70V74H68zM72,72H74V74H72zM74,72H76V74H74zM76,72H78V74H76zM78,72H80V74H78zM80,72H82V74H80zM84,72H86V74H84zM86,72H88V74H86zM24,74H26V76H24zM28,74H30V76H28zM34,74H36V76H34zM38,74H40V76H38zM40,74H42V76H40zM42,74H44V76H42zM44,74H46V76H44zM46,74H48V76H46zM52,74H54V76H52zM54,74H56V76H54zM58,74H60V76H58zM60,74H62V76H60zM64,74H66V76H64zM68,74H70V76H68zM72,74H74V76H72zM80,74H82V76H80zM82,74H84V76H82zM84,74H86V76H84zM88,74H90V76H88zM8,76H10V78H8zM10,76H12V78H10zM12,76H14V78H12zM14,76H16V78H14zM16,76H18V78H16zM18,76H20V78H18zM20,76H22V78H20zM24,76H26V78H24zM26,76H28V78H26zM28,76H30V78H28zM34,76H36V78H34zM38,76H40V78H38zM42,76H44V78H42zM50,76H52V78H50zM54,76H56V78H54zM58,76H60V78H58zM60,76H62V78H60zM64,76H66V78H64zM66,76H68V78H66zM70,76H72V78H70zM72,76H74V78H72zM76,76H78V78H76zM80,76H82V78H80zM82,76H84V78H82zM86,76H88V78H86zM8,78H10V80H8zM20,78H22V80H20zM28,78H30V80H28zM30,78H32V80H30zM32,78H34V80H32zM34,78H36V80H34zM48,78H50V80H48zM52,78H54V80H52zM56,78H58V80H56zM58,78H60V80H58zM60,78H62V80H60zM68,78H70V80H68zM72,78H74V80H72zM80,78H82V80H80zM86,78H88V80H86zM88,78H90V80H88zM8,80H10V82H8zM12,80H14V82H12zM14,80H16V82H14zM16,80H18V82H16zM20,80H22V82H20zM28,80H30V82H28zM30,80H32V82H30zM32,80H34V82H32zM34,80H36V82H34zM36,80H38V82H36zM40,80H42V82H40zM44,80H46V82H44zM48,80H50V82H48zM52,80H54V82H52zM58,80H60V82H58zM64,80H66V82H64zM66,80H68V82H66zM72,80H74V82H72zM74,80H76V82H74zM76,80H78V82H76zM78,80H80V82H78zM80,80H82V82H80zM84,80H86V82H84zM8,82H10V84H8zM12,82H14V84H12zM14,82H16V84H14zM16,82H18V84H16zM20,82H22V84H20zM24,82H26V84H24zM28,82H30V84H28zM32,82H34V84H32zM34,82H36V84H34zM36,82H38V84H36zM38,82H40V84H38zM42,82H44V84H42zM44,82H46V84H44zM46,82H48V84H46zM50,82H52V84H50zM54,82H56V84H54zM58,82H60V84H58zM62,82H64V84H62zM64,82H66V84H64zM68,82H70V84H68zM70,82H72V84H70zM72,82H74V84H72zM80,82H82V84H80zM82,82H84V84H82zM86,82H88V84H86zM88,82H90V84H88zM8,84H10V86H8zM12,84H14V86H12zM14,84H16V86H14zM16,84H18V86H16zM20,84H22V86H20zM24,84H26V86H24zM26,84H28V86H26zM32,84H34V86H32zM34,84H36V86H34zM38,84H40V86H38zM40,84H42V86H40zM46,84H48V86H46zM50,84H52V86H50zM52,84H54V86H52zM56,84H58V86H56zM58,84H60V86H58zM64,84H66V86H64zM70,84H72V86H70zM72,84H74V86H72zM78,84H80V86H78zM88,84H90V86H88zM8,86H10V88H8zM20,86H22V88H20zM26,86H28V88H26zM30,86H32V88H30zM32,86H34V88H32zM36,86H38V88H36zM40,86H42V88H40zM52,86H54V88H52zM56,86H58V88H56zM58,86H60V88H58zM60,86H62V88H60zM62,86H64V88H62zM72,86H74V88H72zM74,86H76V88H74zM80,86H82V88H80zM82,86H84V88H82zM86,86H88V88H86zM8,88H10V90H8zM10,88H12V90H10zM12,88H14V90H12zM14,88H16V90H14zM16,88H18V90H16zM18,88H20V90H18zM20,88H22V90H20zM26,88H28V90H26zM30,88H32V90H30zM40,88H42V90H40zM42,88H44V90H42zM44,88H46V90H44zM46,88H48V90H46zM48,88H50V90H48zM50,88H52V90H50zM52,88H54V90H52zM56,88H58V90H56zM58,88H60V90H58zM62,88H64V90H62zM64,88H66V90H64zM68,88H70V90H68zM72,88H74V90H72zM82,88H84V90H82zM86,88H88V90H86z" id="qr-path" fill="#000000" fill-opacity="1" fill-rule="nonzero" stroke="none" /></svg>