<?xml version='1.0' encoding='UTF-8'?>
<svg width="90mm" height="90mm" version="1.1" viewBox="0 0 90 90" xmlns="http://www.w3.org/2000/svg"><path d="M8,8H10V10H8zM10,8H12V10H10zM12,8H14V10H12zM14,8H16V10H14zM16,8H18V10H16zM18,8H20V10H18zM20,8H22V10H20zM42,8H44V10H42zM44,8H46V10H44zM48,8H50V10H48zM52,8H54V10H52zM54,8H56V10H54zM56,8H58V10H56zM60,8H62V10H60zM62,8H64V10H62zM64,8H66V10H64zM68,8H70V10H68zM70,8H72V10H70zM72,8H74V10H72zM74,8H76V10H74zM76,8H78V10H76zM78,8H80V10H78zM80,8H82V10H80zM8,10H10V12H8zM20,10H22V12H20zM24,10H26V12H24zM26,10H28V12H26zM28,10H30V12H28zM32,10H34V12H32zM34,10H36V12H34zM40,10H42V12H40zM44,10H46V12H44zM56,10H58V12H56zM64,10H66V12H64zM68,10H70V12H68zM80,10H82V12H80zM8,12H10V14H8zM12,12H14V14H12zM14,12H16V14H14zM16,12H18V14H16zM20,12H22V14H20zM26,12H28V14H26zM30,12H32V14H30zM36,12H38V14H36zM50,12H52V14H50zM52,12H54V14H52zM54,12H56V14H54zM56,12H58V14H56zM68,12H70V14H68zM72,12H74V14H72zM74,12H76V14H74zM76,12H78V14H76zM80,12H82V14H80zM8,14H10V16H8zM12,14H14V16H12zM14,14H16V16H14zM16,14H18V16H16zM20,14H22V16H20zM26,14H28V16H26zM36,14H38V16H36zM38,14H40V16H38zM42,14H44V16H42zM46,14H48V16H46zM48,14H50V16H48zM52,14H54V16H52zM54,14H56V16H54zM56,14H58V16H56zM58,14H60V16H58zM60,14H62V16H60zM64,14H66V16H64zM68,14H70V16H68zM72,14H74V16H72zM74,14H76V16H74zM76,14H78V16H76zM80,14H82V16H80zM8,16H10V18H8zM12,16H14V18H12zM14,16H16V18H14zM16,16H18V18H16zM20,16H22V18H20zM26,16H28V18H26zM28,16H30V18H28zM34,16H36V18H34zM38,16H40V18H38zM40,16H42V18H40zM42,16H44V18H42zM46,16H48V18H46zM50,16H52V18H50zM52,16H54V18H52zM54,16H56V18H54zM56,16H58V18H56zM60,16H62V18H60zM62,16H64V18H62zM68,16H70V18H68zM72,16H74V18H72zM74,16H76V18H74zM76,16H78V18H76zM80,16H82V18H80zM8,18H10V20H8zM20,18H22V20H20zM24,18H26V20H24zM26,18H28V20H26zM30,18H32V20H30zM32,18H34V20H32zM38,18H40V20H38zM40,18H42V20H40zM44,18H46V20H44zM50,18H52V20H50zM54,18H56V20H54zM56,18H58V20H56zM64,18H66V20H64zM68,18H70V20H68zM80,18H82V20H80zM8,20H10V22H8zM10,20H12V22H10zM12,20H14V22H12zM14,20H16V22H14zM16,20H18V22H16zM18,20H20V22H18zM20,20H22V22H20zM24,20H26V22H24zM28,20H30V22H28zM32,20H34V22H32zM36,20H38V22H36zM40,20H42V22H40zM44,20H46V22H44zM48,20H50V22H48zM52,20H54V22H52zM56,20H58V22H56zM60,20H62V22H60zM64,20H66V22H64zM68,20H70V22H68zM70,20H72V22H70zM72,20H74V22H72zM74,20H76V22H74zM76,20H78V22H76zM78,20H80V22H78zM80,20H82V22H80zM24,22H26V24H24zM26,22H28V24H26zM28,22H30V24H28zM30,22H32V24H30zM38,22H40V24H38zM42,22H44V24H42zM44,22H46V24H44zM46,22H48V24H46zM48,22H50V24H48zM58,22H60V24H58zM16,24H18V26H16zM18,24H20V26H18zM20,24H22V26H20zM22,24H24V26H22zM26,24H28V26H26zM32,24H34V26H32zM34,24H36V26H34zM36,24H38V26H36zM38,24H40V26H38zM40,24H42V26H40zM44,24H46V26H44zM50,24H52V26H50zM54,24H56V26H54zM56,24H58V26H56zM58,24H60V26H58zM62,24H64V26H62zM64,24H66V26H64zM68,24H70V26H68zM70,24H72V26H70zM78,24H80V26H78zM10,26H12V28H10zM12,26H14V28H12zM14,26H16V28H14zM18,26H20V28H18zM22,26H24V28H22zM26,26H28V28H26zM30,26H32V28H30zM48,26H50V28H48zM50,26H52V28H50zM52,26H54V28H52zM54,26H56V28H54zM56,26H58V28H56zM60,26H62V28H60zM72,26H74V28H72zM74,26H76V28H74zM8,28H10V30H8zM10,28H12V30H10zM14,28H16V30H14zM16,28H18V30H16zM18,28H20V30H18zM20,28H22V30H20zM22,28H24V30H22zM24,28H26V30H24zM30,28H32V30H30zM32,28H34V30H32zM34,28H36V30H34zM36,28H38V30H36zM40,28H42V30H40zM44,28H46V30H44zM48,28H50V30H48zM50,28H52V30H50zM54,28H56V30H54zM56,28H58V30H56zM58,28H60V30H58zM60,28H62V30H60zM62,28H64V30H62zM66,28H68V30H66zM70,28H72V30H70zM76,28H78V30H76zM12,30H14V32H12zM14,30H16V32H14zM18,30H20V32H18zM22,30H24V32H22zM26,30H28V32H26zM36,30H38V32H36zM38,30H40V32H38zM42,30H44V32H42zM52,30H54V32H52zM54,30H56V32H54zM60,30H62V32H60zM62,30H64V32H62zM64,30H66V32H64zM66,30H68V32H66zM72,30H74V32H72zM76,30H78V32H76zM80,30H82V32H80zM10,32H12V34H10zM14,32H16V34H14zM16,32H18V34H16zM20,32H22V34H20zM24,32H26V34H24zM26,32H28V34H26zM28,32H30V34H28zM32,32H34V34H32zM36,32H38V34H36zM38,32H40V34H38zM40,32H42V34H40zM46,32H48V34H46zM48,32H50V34H48zM66,32H68V34H66zM68,32H70V34H68zM70,32H72V34H70zM76,32H78V34H76zM80,32H82V34H80zM8,34H10V36H8zM12,34H14V36H12zM14,34H16V36H14zM24,34H26V36H24zM32,34H34V36H32zM34,34H36V36H34zM36,34H38V36H36zM44,34H46V36H44zM50,34H52V36H50zM52,34H54V36H52zM54,34H56V36H54zM56,34H58V36H56zM58,34H60V36H58zM60,34H62V36H60zM62,34H64V36H62zM66,34H68V36H66zM72,34H74V36H72zM76,34H78V36H76zM8,36H10V38H8zM10,36H12V38H10zM12,36H14V38H12zM16,36H18V38H16zM20,36H22V38H20zM28,36H30V38H28zM32,36H34V38H32zM38,36H40V38H38zM42,36H44V38H42zM46,36H48V38H46zM48,36H50V38H48zM50,36H52V38H50zM56,36H58V38H56zM58,36H60V38H58zM60,36H62V38H60zM62,36H64V38H62zM64,36H66V38H64zM66,36H68V38H66zM68,36H70V38H68zM72,36H74V38H72zM74,36H76V38H74zM76,36H78V38H76zM22,38H24V40H22zM24,38H26V40H24zM26,38H28V40H26zM32,38H34V40H32zM34,38H36V40H34zM36,38H38V40H36zM38,38H40V40H38zM40,38H42V40H40zM42,38H44V40H42zM48,38H50V40H48zM54,38H56V40H54zM56,38H58V40H56zM60,38H62V40H60zM64,38H66V40H64zM66,38H68V40H66zM68,38H70V40H68zM76,38H78V40H76zM78,38H80V40H78zM14,40H16V42H14zM16,40H18V42H16zM18,40H20V42H18zM20,40H22V42H20zM24,40H26V42H24zM26,40H28V42H26zM36,40H38V42H36zM44,40H46V42H44zM48,40H50V42H48zM50,40H52V42H50zM52,40H54V42H52zM54,40H56V42H54zM56,40H58V42H56zM68,40H70V42H68zM74,40H76V42H74zM76,40H78V42H76zM78,40H80V42H78zM8,42H10V44H8zM24,42H26V44H24zM26,42H28V44H26zM28,42H30V44H28zM32,42H34V44H32zM40,42H42V44H40zM42,42H44V44H42zM48,42H50V44H48zM52,42H54V44H52zM54,42H56V44H54zM58,42H60V44H58zM60,42H62V44H60zM62,42H64V44H62zM64,42H66V44H64zM72,42H74V44H72zM76,42H78V44H76zM8,44H10V46H8zM12,44H14V46H12zM14,44H16V46H14zM18,44H20V46H18zM20,44H22V46H20zM22,44H24V46H22zM24,44H26V46H24zM28,44H30V46H28zM30,44H32V46H30zM36,44H38V46H36zM42,44H44V46H42zM44,44H46V46H44zM46,44H48V46H46zM48,44H50V46H48zM50,44H52V46H50zM52,44H54V46H52zM54,44H56V46H54zM56,44H58V46H56zM58,44H60V46H58zM60,44H62V46H60zM62,44H64V46H62zM64,44H66V46H64zM72,44H74V46H72zM76,44H78V46H76zM18,46H20V48H18zM24,46H26V48H24zM26,46H28V48H26zM28,46H30V48H28zM34,46H36V48H34zM36,46H38V48H36zM38,46H40V48H38zM46,46H48V48H46zM48,46H50V48H48zM50,46H52V48H50zM54,46H56V48H54zM56,46H58V48H56zM60,46H62V48H60zM68,46H70V48H68zM70,46H72V48H70zM72,46H74V48H72zM76,46H78V48H76zM78,46H80V48H78zM80,46H82V48H80zM8,48H10V50H8zM12,48H14V50H12zM14,48H16V50H14zM16,48H18V50H16zM20,48H22V50H20zM22,48H24V50H22zM24,48H26V50H24zM26,48H28V50H26zM30,48H32V50H30zM42,48H44V50H42zM46,48H48V50H46zM52,48H54V50H52zM54,48H56V50H54zM56,48H58V50H56zM66,48H68V50H66zM68,48H70V50H68zM76,48H78V50H76zM78,48H80V50H78zM80,48H82V50H80zM8,50H10V52H8zM12,50H14V52H12zM22,50H24V52H22zM26,50H28V52H26zM28,50H30V52H28zM30,50H32V52H30zM32,50H34V52H32zM34,50H36V52H34zM36,50H38V52H36zM50,50H52V52H50zM54,50H56V52H54zM58,50H60V52H58zM60,50H62V52H60zM62,50H64V52H62zM72,50H74V52H72zM78,50H80V52H78zM12,52H14V54H12zM14,52H16V54H14zM18,52H20V54H18zM20,52H22V54H20zM24,52H26V54H24zM26,52H28V54H26zM30,52H32V54H30zM40,52H42V54H40zM42,52H44V54H42zM46,52H48V54H46zM50,52H52V54H50zM54,52H56V54H54zM62,52H64V54H62zM64,52H66V54H64zM68,52H70V54H68zM74,52H76V54H74zM8,54H10V56H8zM10,54H12V56H10zM14,54H16V56H14zM16,54H18V56H16zM24,54H26V56H24zM26,54H28V56H26zM28,54H30V56H28zM34,54H36V56H34zM40,54H42V56H40zM42,54H44V56H42zM44,54H46V56H44zM46,54H48V56H46zM54,54H56V56H54zM60,54H62V56H60zM64,54H66V56H64zM68,54H70V56H68zM70,54H72V56H70zM76,54H78V56H76zM78,54H80V56H78zM12,56H14V58H12zM20,56H22V58H20zM22,56H24V58H22zM24,56H26V58H24zM28,56H30V58H28zM30,56H32V58H30zM32,56H34V58H32zM34,56H36V58H34zM36,56H38V58H36zM40,56H42V58H40zM44,56H46V58H44zM50,56H52V58H50zM52,56H54V58H52zM58,56H60V58H58zM60,56H62V58H60zM62,56H64V58H62zM68,56H70V58H68zM70,56H72V58H70zM76,56H78V58H76zM8,58H10V60H8zM12,58H14V60H12zM22,58H24V60H22zM26,58H28V60H26zM28,58H30V60H28zM30,58H32V60H30zM36,58H38V60H36zM42,58H44V60H42zM48,58H50V60H48zM52,58H54V60H52zM56,58H58V60H56zM58,58H60V60H58zM64,58H66V60H64zM68,58H70V60H68zM72,58H74V60H72zM78,58H80V60H78zM12,60H14V62H12zM14,60H16V62H14zM16,60H18V62H16zM18,60H20V62H18zM20,60H22V62H20zM22,60H24V62H22zM26,60H28V62H26zM30,60H32V62H30zM32,60H34V62H32zM34,60H36V62H34zM36,60H38V62H36zM38,60H40V62H38zM44,60H46V62H44zM46,60H48V62H46zM50,60H52V62H50zM52,60H54V62H52zM54,60H56V62H54zM56,60H58V62H56zM64,60H66V62H64zM66,60H68V62H66zM72,60H74V62H72zM74,60H76V62H74zM12,62H14V64H12zM28,62H30V64H28zM30,62H32V64H30zM32,62H34V64H32zM38,62H40V64H38zM52,62H54V64H52zM54,62H56V64H54zM60,62H62V64H60zM68,62H70V64H68zM70,62H72V64H70zM72,62H74V64H72zM74,62H76V64H74zM76,62H78V64H76zM78,62H80V64H78zM8,64H10V66H8zM10,64H12V66H10zM14,64H16V66H14zM16,64H18V66H16zM20,64H22V66H20zM28,64H30V66H28zM32,64H34V66H32zM36,64H38V66H36zM38,64H40V66H38zM40,64H42V66H40zM44,64H46V66H44zM46,64H48V66H46zM50,64H52V66H50zM52,64H54V66H52zM56,64H58V66H56zM62,64H64V66H62zM64,64H66V66H64zM66,64H68V66H66zM68,64H70V66H68zM70,64H72V66H70zM72,64H74V66H72zM76,64H78V66H76zM78,64H80V66H78zM24,66H26V68H24zM30,66H32V68H30zM32,66H34V68H32zM46,66H48V68H46zM50,66H52V68H50zM54,66H56V68H54zM58,66H60V68H58zM60,66H62V68H60zM62,66H64V68H62zM64,66H66V68H64zM72,66H74V68H72zM74,66H76V68H74zM8,68H10V70H8zM10,68H12V70H10zM12,68H14V70H12zM14,68H16V70H14zM16,68H18V70H16zM18,68H20V70H18zM20,68H22V70H20zM24,68H26V70H24zM26,68H28V70H26zM30,68H32V70H30zM38,68H40V70H38zM40,68H42V70H40zM44,68H46V70H44zM46,68H48V70H46zM50,68H52V70H50zM54,68H56V70H54zM60,68H62V70H60zM64,68H66V70H64zM68,68H70V70H68zM72,68H74V70H72zM74,68H76V70H74zM76,68H78V70H76zM8,70H10V72H8zM20,70H22V72H20zM24,70H26V72H24zM26,70H28V72H26zM28,70H30V72H28zM32,70H34V72H32zM34,70H36V72H34zM38,70H40V72H38zM44,70H46V72H44zM46,70H48V72H46zM50,70H52V72H50zM54,70H56V72H54zM56,70H58V72H56zM60,70H62V72H60zM64,70H66V72H64zM72,70H74V72H72zM76,70H78V72H76zM78,70H80V72H78zM8,72H10V74H8zM12,72H14V74H12zM14,72H16V74H14zM16,72H18V74H16zM20,72H22V74H20zM24,72H26V74H24zM26,72H28V74H26zM30,72H32V74H30zM32,72H34V74H32zM34,72H36V74H34zM38,72H40V74H38zM42,72H44V74H42zM44,72H46V74H44zM46,72H48V74H46zM56,72H58V74H56zM64,72H66V74H64zM66,72H68V74H66zM68,72H70V74H68zM70,72H72V74H70zM72,72H74V74H72zM74,72H76V74H74zM76,72H78V74H76zM78,72H80V74H78zM8,74H10V76H8zM12,74H14V76H12zM14,74H16V76H14zM16,74H18V76H16zM20,74H22V76H20zM26,74H28V76H26zM32,74H34V76H32zM34,74H36V76H34zM36,74H38V76H36zM42,74H44V76H42zM44,74H46V76H44zM46,74H48V76H46zM48,74H50V76H48zM60,74H62V76H60zM62,74H64V76H62zM68,74H70V76H68zM8,76H10V78H8zM12,76H14V78H12zM14,76H16V78H14zM16,76H18V78H16zM20,76H22V78H20zM26,76H28V78H26zM28,76H30V78H28zM32,76H34V78H32zM36,76H38V78H36zM38,76H40V78H38zM44,76H46V78H44zM46,76H48V78H46zM50,76H52V78H50zM64,76H66V78H64zM68,76H70V78H68zM70,76H72V78H70zM76,76H78V78H76zM78,76H80V78H78zM8,78H10V80H8zM20,78H22V80H20zM26,78H28V80H26zM28,78H30V80H28zM40,78H42V80H40zM42,78H44V80H42zM44,78H46V80H44zM46,78H48V80H46zM50,78H52V80H50zM52,78H54V80H52zM56,78H58V80H56zM60,78H62V80H60zM68,78H70V80H68zM70,78H72V80H70zM76,78H78V80H76zM78,78H80V80H78zM8,80H10V82H8zM10,80H12V82H10zM12,80H14V82H12zM14,80H16V82H14zM16,80H18V82H16zM18,80H20V82H18zM20,80H22V82H20zM26,80H28V82H26zM28,80H30V82H28zM36,80H38V82H36zM40,80H42V82H40zM42,80H44V82H42zM46,80H48V82H46zM50,80H52V82H50zM52,80H54V82H52zM54,80H56V82H54zM62,80H64V82H62zM66,80H68V82H66zM68,80H70V82H68zM72,80H74V82H72zM76,80H78V82H76zM78,80H80V82H78zM80,80H82V82H80z" id="qr-path" fill="#000000" fill-opacity="1" fill-rule="nonzero" stroke="none" /></svg>